# xmcd
#
# Track frame offsets: 
#        150
#        12312
#        24387
#        34460
#        44410
#        54615
#        65665
#        77735
#        88307
#        100377
#        109640
#        120972
#        134732
#        144790
#        155057
#        165845
#        175790
#        186602
#        198802
#        208122
#        218870
#        228287
#        237120
#        249975
#        261777
#        272310
#        282710
#        292880
#        303390
#        313620
#        322990
#        334942
#        344962
#
# Disc length: 4740 seconds
#
# Revision: 1
# Processed by: cddbd v1.5.2PL0 Copyright (c) Steve Scherf et al.
# Submitted via: ExactAudioCopyFreeDBPlugin 1.0
#
DISCID=eb128221
DTITLE=Joe Carson - Hillbilly Band From Mars
DYEAR=2002
DGENRE=Country
TTITLE0=I Don't Have A Contract With You
TTITLE1=I'd Give Anything (To Be With You)
TTITLE2=I'll Do The Dishes
TTITLE3=I Could Love The Devil Out Of You
TTITLE4=Show Me Now
TTITLE5=I'm Not Allergic To Love
TTITLE6=Don't Enter
TTITLE7=Just A Little While
TTITLE8=Crazy Dream
TTITLE9=Take Me In Your Arms
TTITLE10=Love Transfusion
TTITLE11=Passion And Pride
TTITLE12=Careless Words
TTITLE13=Time Lock
TTITLE14=Shoot The Buffalo
TTITLE15=I'll Never Love No One But You
TTITLE16=Three Little Words Too Late
TTITLE17=Forbidden Wine
TTITLE18=I Did It And I'm Glad
TTITLE19=Who'll By My Memories
TTITLE20=I Gotta Get Drunk
TTITLE21=Helpless
TTITLE22=The Last Song (I'm Ever Gonna Sing)
TTITLE23=Double Life
TTITLE24=Fort Worth Jail
TTITLE25=Be A Good Girl
TTITLE26=Guess You Don't Love Me Anymore
TTITLE27=Release Me
TTITLE28=Who'll Buy The Wine
TTITLE29=I'll Be There
TTITLE30=Fraulein
TTITLE31=Don't Be Afraid To Laugh When You Love
TTITLE32=Hillbilly Band From Mars
EXTD=Bear Family BCD 15757 AH
EXTT0=
EXTT1=
EXTT2=
EXTT3=
EXTT4=
EXTT5=
EXTT6=
EXTT7=
EXTT8=
EXTT9=
EXTT10=
EXTT11=
EXTT12=
EXTT13=
EXTT14=
EXTT15=
EXTT16=
EXTT17=
EXTT18=
EXTT19=
EXTT20=
EXTT21=
EXTT22=
EXTT23=
EXTT24=
EXTT25=
EXTT26=
EXTT27=
EXTT28=
EXTT29=
EXTT30=
EXTT31=
EXTT32=
PLAYORDER=
